<svg id="visual" viewBox="0 0 900 600" width="900" height="600" xmlns="http://www.w3.org/2000/svg" xmlns:xlink="http://www.w3.org/1999/xlink" version="1.1"><rect x="0" y="0" width="900" height="600" fill="#001220"></rect><defs><linearGradient id="grad1_0" x1="33.3%" y1="100%" x2="100%" y2="0%"><stop offset="20%" stop-color="#001220" stop-opacity="1"></stop><stop offset="80%" stop-color="#001220" stop-opacity="1"></stop></linearGradient></defs><defs><linearGradient id="grad2_0" x1="0%" y1="100%" x2="66.7%" y2="0%"><stop offset="20%" stop-color="#001220" stop-opacity="1"></stop><stop offset="80%" stop-color="#001220" stop-opacity="1"></stop></linearGradient></defs><g transform="translate(900, 600)"><path d="M-378.6 0C-342.3 -36.7 -306 -73.3 -292.9 -121.3C-279.8 -169.3 -289.8 -228.6 -267.7 -267.7C-245.6 -306.8 -191.2 -325.8 -141.2 -340.9C-91.2 -356 -45.6 -367.3 0 -378.6L0 0Z" fill="#0066FF"></path></g><g transform="translate(0, 0)"><path d="M378.6 0C371.1 46.8 363.6 93.6 348.3 144.3C333 194.9 309.9 249.3 267.7 267.7C225.5 286.1 164.1 268.4 116.3 280.9C68.5 293.3 34.3 336 0 378.6L0 0Z" fill="#0066FF"></path></g></svg>